<?xml version="1.0" encoding="utf-8"?>
<!-- Generator: Adobe Illustrator 23.0.1, SVG Export Plug-In . SVG Version: 6.00 Build 0)  -->
<svg version="1.1" id="Layer_1" xmlns="http://www.w3.org/2000/svg" xmlns:xlink="http://www.w3.org/1999/xlink" x="0px" y="0px"
	 viewBox="0 0 856.7 327.7" style="enable-background:new 0 0 856.7 327.7;" xml:space="preserve">
<style type="text/css">
	.logost0{fill:#5548E0;}
</style>
<title>Tems</title>
<g>
	<g>
		<path class="logost0" d="M15.7,62.3v41.2h59.9v161.8h53.5V103.5H189V62.3H15.7z"/>
		<path class="logost0" d="M266,223.8v-43.4h96.2v-40.7H266v-35.8h105.3V62.3H212.5v203h162.2v-41.5L266,223.8L266,223.8z"/>
		<path class="logost0" d="M559.5,62.3l-26,93.2c-0.3,1-0.6,2-0.8,3c-2.6,9.3-4.9,18-7,26.2c-2.3,9-4.3,17.7-6.1,26
			c-1.5-7.8-3.3-15.8-5.2-24c-2-8.2-4.2-16.7-6.7-25.4l-0.7-2.7l-26.8-96.1h-73.6v203h49.2v-74c0-7.9-0.2-18.9-0.5-32.8
			c0-0.3,0-0.6,0-0.8c-0.4-14.4-0.9-30.6-1.6-48.6l12.4,49.4L493,265.3h53.1l27.4-106.8l12.7-49.4c-0.6,15-1.1,28.2-1.5,39.6
			c-0.1,3.5-0.2,6.8-0.3,9.8c-0.1,6.9-0.2,12.5-0.2,16.9v90H633v-203L559.5,62.3z"/>
		<path class="logost0" d="M835.8,182.8c-3.6-7.3-8.9-13.8-15.3-18.8c-3-2.2-6.3-4.1-9.7-5.6c-8.8-4.2-22.2-9.1-40-14.7l-2.1-0.7
			c-2.5-0.7-6-1.8-10.6-3.3c-25.6-8-38.4-16.5-38.5-25.5c0-5.3,2.7-9.7,8.1-13.2c0.5-0.3,1-0.6,1.5-0.9L693.7,72
			c-0.9,0.6-1.7,1.2-2.5,1.8c-15,11.4-22.5,26.9-22.5,46.2c-0.2,12.1,4,23.9,11.7,33.3c1.4,1.7,3,3.4,4.6,5
			c7.5,7.2,17.3,13.2,29.7,18c10.4,4.1,23.2,8.2,38.3,12.6c15.1,4.3,24.6,7.5,28.5,9.5c2.5,1.3,4.6,3.3,6,5.7
			c1.5,2.6,2.2,5.6,2.1,8.6c0,6.3-3,11.3-9,14.7c-6,3.5-14.4,5.3-25.3,5.3c-12.8,0-22.5-2.9-29.1-8.8c-6.6-5.8-10.1-14.5-10.5-26.1
			h-51.4c1.6,24.5,9.5,42.8,23.7,54.9s34.8,18.1,62,18.1c28.8,0,51.1-5.6,67.1-16.9c15.9-11.3,23.9-27,23.9-47.2
			C841.2,198.5,839.4,190.3,835.8,182.8z M812,74.8c-14.8-12-34.7-18.1-59.9-18.1c-20,0-36.7,3.5-50.3,10.5l36.3,29.7
			c3.5-0.7,7-1,10.6-1c10.8,0,19,2.2,24.8,6.7c5.7,4.5,9.1,11.5,10.3,21h50.4C834.1,103.1,826.7,86.9,812,74.8z"/>
	</g>
	<circle class="logost0" cx="225.9" cy="22.5" r="11.9"/>
	<circle class="logost0" cx="158.9" cy="201.5" r="4.1"/>
	<path class="logost0" d="M362.1,192.2c6.4,6.2-0.7,14.1-7,9.5c-0.2-0.1-0.3-0.2-0.4-0.4c-3.3-4.6-0.1-9.5,4.3-9.5h2.2
		C361.5,191.8,361.8,191.9,362.1,192.2z"/>
	<circle class="logost0" cx="11.9" cy="192.4" r="5.7"/>
	<circle class="logost0" cx="138.7" cy="305.1" r="10.8"/>
	<path class="logost0" d="M501.7,39.2c0,6.3-6.9,10.9-13.5,6.7c-0.6-0.4-1.1-0.9-1.5-1.5c-5.7-8.9,4.7-18.4,13.5-10.7
		c1,0.8,1.5,2.1,1.5,3.4V39.2z"/>
	<path class="logost0" d="M41.3,31.8c0,4.8-5.5,8.3-10.5,4.5c0,0-0.1,0-0.1-0.1c-5.3-7.1,3.8-15.1,10.6-7.3
		C41.3,28.8,41.3,31.8,41.3,31.8z"/>
	<path class="logost0" d="M472.3,283.3c0,3.1-3.5,5.5-6.8,3.4c-0.3-0.2-0.6-0.5-0.8-0.8c-2.9-4.5,2.4-9.2,6.8-5.4
		c0.5,0.4,0.8,1.1,0.8,1.7V283.3z"/>
	<path class="logost0" d="M708.2,287.5c0,3.1-3.5,5.4-6.8,3.3c-0.3-0.2-0.5-0.4-0.8-0.8c-2.9-4.4,2.3-9.2,6.8-5.3c0.5,0.4,0.8,1,0.8,1.7
		V287.5z"/>
	<path class="logost0" d="M815.1,45.7c0,4.9-5.4,8.5-10.6,5.2c-0.5-0.3-0.9-0.7-1.2-1.2c-4.5-7,3.7-14.4,10.6-8.4
		c0.8,0.6,1.2,1.6,1.2,2.7V45.7z"/>
</g>
</svg>
