<?xml version="1.0" encoding="utf-8"?>
<svg xmlns="http://www.w3.org/2000/svg" style="margin: auto; background: none; display: block; shape-rendering: auto;" width="272" height="250" preserveAspectRatio="xMidYMid">
<style type="text/css">
  text {
    text-anchor: middle; font-size: 38px; opacity: 0;
  }
</style>
<g style="transform-origin: 136px 125px; transform: scale(0.475);">
<g transform="translate(136,125)">
  <g transform="translate(0,0)"><g class="path" style="opacity: 1; transform-origin: -75.88px -6.264px; animation: 2.7027s linear -1.33784s infinite normal forwards running fade-fe3e0106-2633-4784-a466-88546998cb15;"><path d="M0.80-49.28L0.80-56L42.80-56L42.80-49.28L25.60-49.28L25.60 0L18 0L18-49.28L0.80-49.28" fill="#5548e0" stroke="none" stroke-width="none" transform="translate(-97.68002319335938,21.73599594116211)" style="fill: rgb(85, 72, 224);"></path></g><g class="path" style="opacity: 1; transform-origin: -30.08px -6.264px; animation: 2.7027s linear -0.891892s infinite normal forwards running fade-fe3e0106-2633-4784-a466-88546998cb15;"><path d="M50.80 0L50.80-56L84.40-56L84.40-49.44L58.40-49.44L58.40-32.40L80.80-32.40L80.80-26L58.40-26L58.40-6.56L84.40-6.56L84.40 0L50.80 0" fill="#5548e0" stroke="none" stroke-width="none" transform="translate(-97.68002319335938,21.73599594116211)" style="fill: rgb(85, 72, 224);"></path></g><g class="path" style="opacity: 1; transform-origin: 23.68px -6.264px; animation: 2.7027s linear -0.445946s infinite normal forwards running fade-fe3e0106-2633-4784-a466-88546998cb15;"><path d="M139.92 0L139.92-46.32L124.96-12.64L117.44-12.64L102.40-46.32L102.40 0L95.20 0L95.20-56L105.84-56L121.36-20.56L136.64-56L147.52-56L147.52 0L139.92 0" fill="#5548e0" stroke="none" stroke-width="none" transform="translate(-97.68002319335938,21.73599594116211)" style="fill: rgb(85, 72, 224);"></path></g><g class="path" style="opacity: 1; transform-origin: 78.96px -6.264px; animation: 2.7027s linear 0s infinite normal forwards running fade-fe3e0106-2633-4784-a466-88546998cb15;"><path d="M157.12-4.72L160.96-11.12L160.96-11.12Q163.84-8.72 167.44-7.20L167.44-7.20L167.44-7.20Q171.04-5.68 175.84-5.68L175.84-5.68L175.84-5.68Q181.60-5.68 184.96-8.08L184.96-8.08L184.96-8.08Q188.32-10.48 188.32-14.56L188.32-14.56L188.32-14.56Q188.32-16.24 187.84-17.68L187.84-17.68L187.84-17.68Q187.36-19.12 185.96-20.44L185.96-20.44L185.96-20.44Q184.56-21.76 182.04-23.08L182.04-23.08L182.04-23.08Q179.52-24.40 175.52-25.92L175.52-25.92L175.52-25.92Q171.20-27.60 168.20-29.24L168.20-29.24L168.20-29.24Q165.20-30.88 163.36-32.84L163.36-32.84L163.36-32.84Q161.52-34.80 160.72-37.16L160.72-37.16L160.72-37.16Q159.92-39.52 159.92-42.56L159.92-42.56L159.92-42.56Q159.92-45.52 161.16-48.16L161.16-48.16L161.16-48.16Q162.40-50.80 164.84-52.76L164.84-52.76L164.84-52.76Q167.28-54.72 170.84-55.84L170.84-55.84L170.84-55.84Q174.40-56.96 178.96-56.96L178.96-56.96L178.96-56.96Q183.92-56.96 187.84-55.96L187.84-55.96L187.84-55.96Q191.76-54.96 195.60-53.12L195.60-53.12L192.80-46.64L192.80-46.64Q190.08-48.24 186.44-49.32L186.44-49.32L186.44-49.32Q182.80-50.40 178.80-50.40L178.80-50.40L178.80-50.40Q173.52-50.40 170.48-48.36L170.48-48.36L170.48-48.36Q167.44-46.32 167.44-42.96L167.44-42.96L167.44-42.96Q167.44-41.36 167.88-40.12L167.88-40.12L167.88-40.12Q168.32-38.88 169.64-37.72L169.64-37.72L169.64-37.72Q170.96-36.56 173.32-35.36L173.32-35.36L173.32-35.36Q175.68-34.16 179.60-32.72L179.60-32.72L179.60-32.72Q184.24-30.96 187.44-29.12L187.44-29.12L187.44-29.12Q190.64-27.28 192.56-25.20L192.56-25.20L192.56-25.20Q194.48-23.12 195.32-20.72L195.32-20.72L195.32-20.72Q196.16-18.32 196.16-15.44L196.16-15.44L196.16-15.44Q196.16-11.52 194.64-8.48L194.64-8.48L194.64-8.48Q193.12-5.44 190.44-3.32L190.44-3.32L190.44-3.32Q187.76-1.20 184-0.12L184-0.12L184-0.12Q180.24 0.96 175.84 0.96L175.84 0.96L175.84 0.96Q170 0.96 165.20-0.60L165.20-0.60L165.20-0.60Q160.40-2.16 157.12-4.72L157.12-4.72" fill="#5548e0" stroke="none" stroke-width="none" transform="translate(-97.68002319335938,21.73599594116211)" style="fill: rgb(85, 72, 224);"></path></g></g>
</g>
</g>
<style id="fade-fe3e0106-2633-4784-a466-88546998cb15" data-anikit="">@keyframes fade-fe3e0106-2633-4784-a466-88546998cb15
{
  0% {
    animation-timing-function: cubic-bezier(0.2057,0.573,0.3723,0.9184);
    opacity: 1;
  }
  100% {
    opacity: 0;
  }
}</style></svg>